<svg width="1200" height="630" viewBox="0 0 1200 630" fill="none" xmlns="http://www.w3.org/2000/svg">
  <rect width="1200" height="630" rx="40" fill="url(#bg)" />
  <circle cx="1048" cy="106" r="168" fill="#93C5FD" fill-opacity="0.28" />
  <circle cx="109" cy="561" r="192" fill="#BFDBFE" fill-opacity="0.36" />
  <rect x="86" y="82" width="1028" height="466" rx="36" fill="white" fill-opacity="0.92" />
  <rect x="136" y="146" width="88" height="88" rx="24" fill="#2563EB" />
  <path d="M182.32 169.6C182.32 166.972 179.411 165.398 177.219 166.823L157.524 179.623C155.527 180.92 155.527 183.848 157.524 185.145L177.219 197.945C179.411 199.37 182.32 197.796 182.32 195.168V169.6Z" fill="white" />
  <text x="258" y="198" fill="#0F172A" font-family="Segoe UI, PingFang SC, Microsoft YaHei, sans-serif" font-size="56" font-weight="700">
    SaveAny
  </text>
  <text x="138" y="304" fill="#0F172A" font-family="Segoe UI, PingFang SC, Microsoft YaHei, sans-serif" font-size="68" font-weight="800">
    视频下载器 + AI 视频总结
  </text>
  <text x="138" y="382" fill="#475569" font-family="Segoe UI, PingFang SC, Microsoft YaHei, sans-serif" font-size="34" font-weight="500">
    在线解析 YouTube / 抖音 / Bilibili / TikTok 等公开视频
  </text>
  <text x="138" y="435" fill="#475569" font-family="Segoe UI, PingFang SC, Microsoft YaHei, sans-serif" font-size="34" font-weight="500">
    一键下载视频、提取字幕、生成总结、思维导图与问答
  </text>
  <rect x="138" y="474" width="286" height="58" rx="29" fill="#DBEAFE" />
  <text x="170" y="512" fill="#1D4ED8" font-family="Segoe UI, PingFang SC, Microsoft YaHei, sans-serif" font-size="28" font-weight="700">
    saveany.zj.com
  </text>
  <defs>
    <linearGradient id="bg" x1="66" y1="40" x2="1156" y2="592" gradientUnits="userSpaceOnUse">
      <stop stop-color="#EFF6FF" />
      <stop offset="0.52" stop-color="#E0F2FE" />
      <stop offset="1" stop-color="#F8FAFC" />
    </linearGradient>
  </defs>
</svg>
